<svg xmlns="http://www.w3.org/2000/svg" viewBox="0 0 512 512" width="512" height="512"><g stroke-width="2" fill="none" stroke-linecap="butt"/><path d="M 399.42 384.07A 0.59 0.59 -37.32 0 0 399.33 384.73Q 404.17 394.11 408.6 405.99Q 413.11 418.05 413.78 426.03Q 414.61 436.03 412.52 446.77C 410.15 459 401.56 468.68 391.43 476.16C 386.75 479.61 379.73 482.03 375.35 484.56C 372.2 486.38 368.37 487.41 365.06 489.07Q 355.63 493.8 346.2 498.17C 338.91 501.55 332.03 502.93 323.71 502.97Q 313.69 503.02 309.4 502.84Q 303.75 502.6 295.3 500.6A 9.08 8.92 -24.15 0 1 293.33 499.87C 290.22 498.28 288 497.57 285.79 495.78Q 277.07 488.73 270.85 480.62Q 267.12 475.76 262.85 465.67Q 259.78 458.41 256.39 449.9A 2.34 2.34 79.41 0 0 254.23 448.42C 245.47 448.38 236.89 447.86 228.53 446.28C 222.86 445.21 219.71 445.07 214.81 443.79C 207.79 441.95 200.07 440.34 193.3 437.69C 188.28 435.73 183.85 434.63 179.09 432.44Q 152.58 420.22 134.16 404.82Q 112.03 386.32 96.23 362.8Q 81.15 340.37 72.61 313.68Q 70.48 307.02 67.42 293.63Q 67.06 292.03 65.04 277.88Q 63.9 269.91 63.84 262Q 63.73 245.39 64.13 241.88Q 66.23 223.55 68.06 215.51Q 68.9 211.82 71.11 203.4Q 72.5 198.1 73.81 194.68C 76.35 188.04 78.47 181.47 81.79 174.89C 84.45 169.62 86.32 164.9 89.1 160.3Q 99.69 142.83 107.97 133.18Q 113.51 126.73 120.81 118.98A 1.52 1.52 66.92 0 0 121.23 117.93Q 121.22 91.95 121.34 57.5Q 121.35 53.13 121.82 48.7A 10.59 10.27 59.63 0 1 122.48 46C 125.04 39.3 127.82 31.88 132.82 26.85Q 141.88 17.77 145.91 15.44Q 149.25 13.52 156.06 11.2Q 160.36 9.73 166.87 9.45Q 175.46 9.08 184.86 9.62Q 187.97 9.79 189.95 10.44C 191.62 10.99 194.33 11.34 196.53 12.5Q 205.61 17.29 208.13 19.15Q 210.07 20.58 213.98 24.95Q 216.01 27.2 220.37 30.78C 225.03 34.61 226.9 36.7 231.43 41.21C 233.01 42.79 234.11 43.27 235.55 44.44A 0.17 0.02 37.98 0 1 235.6 44.47L 255.46 62.99A 2.06 2.05 -23.38 0 0 256.86 63.54C 264.55 63.58 272.85 63.9 280.57 65.32C 286.8 66.47 292.2 66.83 297.88 68.38C 303.55 69.92 311.84 71.61 317.91 74.03C 322.9 76.02 328.28 77.68 333.7 80.14Q 390.3 105.84 422 159.09C 425.75 165.39 428.02 170.59 431.14 176.79C 433.96 182.41 435.2 186.69 437.87 193.78Q 439.75 198.77 440.94 203.61C 442.67 210.62 444.21 215.72 445.33 223.02Q 445.73 225.63 446.66 231.82Q 449.71 252.31 447.63 273.94Q 447.35 276.8 445.54 288.7Q 444.44 295.91 443.07 300.78C 441.51 306.35 440.59 311.24 438.62 316.61Q 433.83 329.62 432.53 332.27C 428.88 339.72 426.1 346.72 422.09 353.07Q 418.66 358.5 415.84 362.89Q 408.22 374.73 399.42 384.07ZM 346.81 320.88A 0.33 0.32 74.73 0 1 347.04 320.47Q 355.05 318.49 362.87 317.95C 374.2 317.18 385.43 315.8 396.85 315.02C 403.23 314.57 408.51 313.44 415.19 312.65A 1.62 0.96 -20.12 0 0 415.41 312.6L 421.48 310.61A 0.94 0.91 19.33 0 0 421.74 310.49C 435.7 301.86 442.9 287.67 439.2 271.46C 437.75 265.13 432.49 257.58 428.03 253.22Q 410.46 236 375.59 203.65Q 375.42 203.5 372.62 200.88Q 268.69 103.83 241.34 78.66C 225.19 63.78 216.15 55.14 201.38 41.88C 194.43 35.65 190.43 31.77 182.72 29.56Q 179.27 28.57 172.26 28.79C 161.23 29.14 151.29 36 145.51 45.11C 140.82 52.5 140 63.16 140 71.75Q 140 228.54 140 261.06C 140 274.98 141.02 284.79 141.01 299.18Q 140.97 368.89 141.03 382.75Q 141.06 388.74 141.68 390.6Q 146.47 404.92 160.26 412.58C 166.44 416.01 177.43 415.71 183.72 414.77A 5.14 4.43 -54.94 0 0 184.67 414.53Q 190 412.55 192.52 410.77Q 200.25 405.3 208.76 397.25Q 229.13 377.98 231.7 375.7Q 236.84 371.14 241.78 367.41A 1.08 1.08 56.44 0 1 243.36 367.73Q 244.45 369.6 245.09 371.17Q 246.03 373.47 255.74 395.35Q 261.42 408.16 266.23 419.62Q 280.69 454.05 285.79 464.73Q 290.47 474.53 301.43 480.47A 4.7 4.68 -23.33 0 0 302.57 480.92Q 304.68 481.48 306.08 482.3A 2.96 2.88 62.91 0 0 307.26 482.7Q 316.35 483.81 325.41 482.69A 4.35 4.22 -58.84 0 0 326.44 482.42Q 341.32 476.48 355.55 470.06C 361.38 467.43 372.82 463.39 379.6 458.13Q 386.69 452.64 390.75 442.89C 392.32 439.1 392.25 435.16 392.83 430.99C 393.26 427.89 391.99 422.31 390.6 418.92Q 387.38 411.05 381.76 398.75Q 376.38 386.99 373.04 379.56Q 365.63 363.11 364.1 359.88Q 358.78 348.7 358.14 346.92C 355.59 339.81 349.2 328.85 346.81 320.88Z" fill="#000000"/><path d="M 174.35 63.12L 176.96 64.28A 5.62 5.56 74.37 0 1 177.89 64.81Q 178.03 64.91 198.05 83.69Q 278.87 159.49 293.93 173.55Q 337.69 214.42 381.04 255.45C 389.09 263.07 397.2 270.26 404.79 278.42A 0.6 0.6 -32.74 0 1 404.58 279.38Q 402.09 280.42 399.5 280.71Q 382.98 282.58 374.51 283.15Q 368.75 283.53 361.4 284.47C 355.72 285.2 349.74 285.09 343.9 286.08Q 341.23 286.53 332.01 287.15Q 330.21 287.27 320.13 288.21Q 305.18 289.6 299.37 290.1Q 298.5 290.18 297.89 290.45A 1.28 1.28 70.74 0 0 297.17 291.95Q 298.27 296.14 299.84 299.66Q 302.67 305.97 305.73 313.12Q 307.55 317.38 311.92 326.43Q 315.78 334.44 320.05 344.07Q 323.27 351.36 326.81 359.17Q 341.98 392.63 350.79 411.76Q 350.79 411.77 353.44 417.96C 355.22 422.13 357.15 425.13 358.11 429.52A 1.39 1.37 -36.76 0 1 357.96 430.49Q 357.2 431.83 355.61 432.64Q 339.75 440.72 322.25 448Q 319.59 449.11 317.98 449.53A 2.48 2.48 -18.82 0 1 315.09 448.11L 256.01 311.81A 3.36 3.24 -81.64 0 0 255.23 310.72Q 253.52 309.12 252.05 310.55Q 246.06 316.35 228.66 332.34Q 216.51 343.49 205.32 354.14Q 193.08 365.79 181.37 376.62Q 178.35 379.41 176.67 380.59A 0.96 0.96 -17.51 0 1 175.16 379.81C 175.13 363.2 173.92 348.15 173.98 330.38Q 174.01 322.91 174 63.35A 0.25 0.25 -77.89 0 1 174.35 63.12Z" fill="#000000"/></svg>